#!OML:ASF Y:\EmotionMaleHayes\Project 1\Capture day 1\Session 1\Male1.ASF
:FULLY-SPECIFIED
:DEGREES
1
root 6.33654 17.296 0.706822 43.8381 85.2972 45.7971
lowerback 3.95645 2.93468 -5.47949
upperback 1.72936 3.74517 -1.41065
thorax -0.686291 1.87684 1.43575
lowerneck -16.7525 1.67956 1.37137
upperneck 38.5143 5.08485 -2.91279
head 16.9238 2.42673 -0.413139
rclavicle 2.44754e-014 -3.02153e-014
rhumerus -34.9833 -0.0412135 -89.7797
rradius 29.5429
rwrist 5.31449
rhand -12.868 -29.607
rfingers 7.12502
rthumb 13.2204 -59.1678
lclavicle 2.44754e-014 -3.02153e-014
lhumerus -30.1957 -16.1658 92.3649
lradius 23.7884
lwrist -13.4842
lhand -15.927 -24.9138
lfingers 7.12502
lthumb 10.2706 4.81544
rfemur 9.30265 -6.32739 1.35053
rtibia 1.11956
rfoot -8.30326 -3.03211
rtoes -2.6234
lfemur 16.1189 -3.35764 -14.0414
ltibia -5.84679
lfoot -12.0073 16.7861
ltoes -1.57442
2
root 6.33689 17.2966 0.706319 43.3402 85.2661 45.3012
lowerback 4.00205 2.96902 -5.45931
upperback 1.68264 3.78564 -1.42149
thorax -0.760632 1.89927 1.40707
lowerneck -16.6598 1.66584 1.34471
upperneck 38.5017 5.0458 -2.84011
head 16.8879 2.42019 -0.384671
rclavicle -1.95057e-014 1.59028e-014
rhumerus -35.0672 -0.109099 -89.7616
rradius 29.557
rwrist 5.447
rhand -12.722 -29.5546
rfingers 7.12502
rthumb 13.3611 -59.1062
lclavicle -1.95057e-014 1.59028e-014
lhumerus -30.2155 -16.1452 92.3561
lradius 23.696
lwrist -13.5986
lhand -15.8744 -24.9006
lfingers 7.12502
lthumb 10.3213 4.82609
rfemur 9.2545 -6.34804 1.35766
rtibia 1.18384
rfoot -8.3289 -2.85651
rtoes -2.55328
lfemur 16.1367 -3.33024 -14.0426
ltibia -5.852
lfoot -11.992 16.8261
ltoes -1.48559
3
root 6.33786 17.2963 0.706521 43.5533 85.2501 45.5332
lowerback 4.01944 2.98048 -5.48162
upperback 1.68096 3.79892 -1.42982
thorax -0.773743 1.90627 1.40906
lowerneck -16.6697 1.6416 1.30302
upperneck 38.5208 5.00583 -2.79218
head 16.8958 2.40454 -0.363227
rclavicle -3.16565e-014 2.62396e-014
rhumerus -35.0963 -0.192907 -89.7215
rradius 29.5928
rwrist 5.60397
rhand -12.5072 -29.6517
rfingers 7.12502
rthumb 13.5682 -59.1896
lclavicle -3.16565e-014 2.62396e-014
lhumerus -30.2487 -16.1278 92.3361
lradius 23.765
lwrist -13.6274
lhand -15.8587 -24.8859
lfingers 7.12502
lthumb 10.3365 4.84003
rfemur 9.27337 -6.35847 1.32284
rtibia 1.18681
rfoot -8.3068 -2.75573
rtoes -2.49402
lfemur 16.1585 -3.34299 -14.0828
ltibia -5.8452
lfoot -12.0116 16.851
ltoes -2.05866
4
root 6.33636 17.2964 0.70632 43.6693 85.2532 45.6527
lowerback 4.03089 2.97479 -5.5011
upperback 1.68818 3.79017 -1.41499
thorax -0.774318 1.9017 1.43511
lowerneck -16.7513 1.62913 1.21809
upperneck 38.5733 4.99626 -2.73068
head 16.9393 2.395 -0.320983
rclavicle 2.61153e-014 -1.94809e-014
rhumerus -35.1034 -0.155501 -89.7263
rradius 29.581
rwrist 5.48542
rhand -12.6104 -29.5968
rfingers 7.12502
rthumb 13.4687 -59.1413
lclavicle 2.61153e-014 -1.94809e-014
lhumerus -30.2701 -16.1049 92.3378
lradius 23.8528
lwrist -13.6081
lhand -15.9659 -24.9257
lfingers 7.12502
lthumb 10.2331 4.80539
rfemur 9.28561 -6.43403 1.28825
rtibia 1.16223
rfoot -8.26143 -2.79351
rtoes -3.35821
lfemur 16.1467 -3.38015 -14.0954
ltibia -5.82241
lfoot -12.1021 16.8304
ltoes -2.09838
5
root 6.33447 17.2963 0.705206 43.4677 85.2598 45.4395
lowerback 4.0102 2.9592 -5.50069
upperback 1.71328 3.77213 -1.39001
thorax -0.737345 1.89138 1.46355
lowerneck -16.7928 1.65602 1.21516
upperneck 38.5582 5.04424 -2.75569
head 16.9444 2.40869 -0.322132
rclavicle -3.78436e-014 -1.19271e-015
rhumerus -35.0269 0.00099487 -89.7657
rradius 29.49
rwrist 5.32082
rhand -12.8091 -29.4105
rfingers 7.12502
rthumb 13.2772 -58.9676
lclavicle -3.78436e-014 -1.19271e-015
lhumerus -30.2055 -16.099 92.3492
lradius 23.8444
lwrist -13.5144
lhand -15.9106 -24.8878
lfingers 7.12502
lthumb 10.2864 4.84063
rfemur 9.27107 -6.46532 1.29011
rtibia 1.17779
rfoot -8.27777 -2.79447
rtoes -3.38672
lfemur 16.1215 -3.33469 -14.0563
ltibia -5.80056
lfoot -12.1692 16.7694
ltoes -1.81654
6
root 6.33633 17.2959 0.703549 43.7125 85.2746 45.6945
lowerback 3.99283 2.95782 -5.45236
upperback 1.72772 3.77432 -1.41359
thorax -0.70833 1.89203 1.41404
lowerneck -16.7265 1.67047 1.3148
upperneck 38.4859 5.05347 -2.83269
head 16.8953 2.41715 -0.373985
rclavicle 8.4732e-015 -6.75868e-015
rhumerus -34.9822 0.00418188 -89.7818
rradius 29.441
rwrist 5.28408
rhand -12.8577 -29.3127
rfingers 7.12502
rthumb 13.2304 -58.8728
lclavicle 8.4732e-015 -6.75868e-015
lhumerus -30.1725 -16.1345 92.3358
lradius 23.7952
lwrist -13.4859
lhand -15.8481 -24.8977
lfingers 7.12502
lthumb 10.3467 4.8278
rfemur 9.30992 -6.44453 1.28043
rtibia 1.18575
rfoot -8.31776 -2.66248
rtoes -2.33891
lfemur 16.1207 -3.25852 -14.0431
ltibia -5.77489
lfoot -12.2328 16.7173
ltoes -1.64647
7
root 6.33773 17.2959 0.704339 44.1244 85.2602 46.1108
lowerback 3.96053 2.96765 -5.46085
upperback 1.74271 3.79069 -1.44802
thorax -0.67406 1.89964 1.38487
lowerneck -16.6935 1.67505 1.37631
upperneck 38.4505 5.04236 -2.85278
head 16.8701 2.41928 -0.396736
rclavicle 8.84592e-015 2.38542e-014
rhumerus -34.9768 -0.196754 -89.7385
rradius 29.4889
rwrist 5.51774
rhand -12.6048 -29.4271
rfingers 7.12502
rthumb 13.4741 -58.9713
lclavicle 8.84592e-015 2.38542e-014
lhumerus -30.1127 -16.1841 92.3003
lradius 23.7084
lwrist -13.5125
lhand -15.9141 -24.9783
lfingers 7.12502
lthumb 10.283 4.75031
rfemur 9.33095 -6.26966 1.28994
rtibia 1.13667
rfoot -8.35218 -2.68536
rtoes -1.27754
lfemur 16.1168 -3.30461 -14.0966
ltibia -5.74608
lfoot -12.2797 16.7351
ltoes -1.04432
8
root 6.33625 17.2964 0.706372 43.8084 85.2609 45.8059
lowerback 3.96332 2.97552 -5.47816
upperback 1.75269 3.80086 -1.43582
thorax -0.66787 1.90433 1.40655
lowerneck -16.6559 1.68882 1.43726
upperneck 38.4052 5.06114 -2.91348
head 16.8415 2.42775 -0.431887
rclavicle 8.32411e-015 9.14409e-015
rhumerus -35.0072 -0.387399 -89.6565
rradius 29.6094
rwrist 5.93557
rhand -12.2171 -29.6408
rfingers 7.12502
rthumb 13.8477 -59.1598
lclavicle 8.32411e-015 9.14409e-015
lhumerus -30.1018 -16.2068 92.283
lradius 23.7073
lwrist -13.485
lhand -15.8061 -24.9383
lfingers 7.12502
lthumb 10.3872 4.78517
rfemur 9.33369 -6.01471 1.39726
rtibia 1.0745
rfoot -8.39249 -2.90532
rtoes -0.805972
lfemur 16.1293 -3.41778 -14.0969
ltibia -5.74449
lfoot -12.2746 16.7864
ltoes -0.626569
9
root 6.33679 17.2967 0.70506 43.1101 85.3034 45.1077
lowerback 3.97601 2.97646 -5.39447
upperback 1.73459 3.80272 -1.41677
thorax -0.689912 1.90589 1.3784
lowerneck -16.5922 1.70336 1.49394
upperneck 38.3673 5.08417 -2.97006
head 16.8102 2.43915 -0.463783
rclavicle 3.24267e-014 -1.27222e-014
rhumerus -35.0667 -0.31142 -89.6793
rradius 29.6666
rwrist 5.82504
rhand -12.2947 -29.6931
rfingers 7.12502
rthumb 13.773 -59.2172
lclavicle 3.24267e-014 -1.27222e-014
lhumerus -30.2519 -16.3235 92.3283
lradius 23.8865
lwrist -13.3669
lhand -15.6705 -24.7657
lfingers 7.12502
lthumb 10.518 4.95118
rfemur 9.33268 -6.04358 1.47235
rtibia 1.07655
rfoot -8.38184 -2.89213
rtoes -0.834855
lfemur 16.1374 -3.45395 -14.0309
ltibia -5.76249
lfoot -12.2424 16.813
ltoes -0.871693
10
root 6.33723 17.297 0.704036 42.8806 85.304 44.8455
lowerback 3.96024 2.96754 -5.38156
upperback 1.71989 3.79136 -1.41093
thorax -0.695165 1.90039 1.37826
lowerneck -16.6371 1.72386 1.51241
upperneck 38.4045 5.11243 -2.96789
head 16.843 2.45295 -0.459822
rclavicle 2.34069e-014 8.34896e-015
rhumerus -35.0329 -0.117711 -89.7657
rradius 29.5479
rwrist 5.45581
rhand -12.7445 -29.4334
rfingers 7.12502
rthumb 13.3395 -58.9864
lclavicle 2.34069e-014 8.34896e-015
lhumerus -30.3212 -16.4364 92.3854
lradius 23.9654
lwrist -13.1835
lhand -15.8177 -24.7783
lfingers 7.12502
lthumb 10.376 4.94569
rfemur 9.27289 -6.1365 1.46297
rtibia 1.13032
rfoot -8.40137 -2.90373
rtoes -1.28326
lfemur 16.1082 -3.36796 -13.9839
ltibia -5.7849
lfoot -12.1997 16.7556
ltoes -0.663851
11
root 6.33595 17.2973 0.704662 43.4155 85.2659 45.3865
lowerback 3.9968 2.95331 -5.48171
upperback 1.7313 3.76707 -1.39891
thorax -0.709164 1.88819 1.44561
lowerneck -16.6905 1.75362 1.47373
upperneck 38.4286 5.17509 -2.96887
head 16.8708 2.47146 -0.440503
rclavicle -3.29983e-014 1.98785e-015
rhumerus -34.9577 -0.0417647 -89.7638
rradius 29.4483
rwrist 5.38241
rhand -12.9348 -29.3058
rfingers 7.12502
rthumb 13.156 -58.8707
lclavicle -3.29983e-014 1.98785e-015
lhumerus -30.1811 -16.2296 92.36
lradius 23.787
lwrist -13.2721
lhand -15.9547 -24.9632
lfingers 7.12502
lthumb 10.2438 4.76735
rfemur 9.248 -6.11128 1.40599
rtibia 1.17566
rfoot -8.46611 -3.03471
rtoes -1.88707
lfemur 16.1121 -3.28584 -14.0152
ltibia -5.80445
lfoot -12.15 16.716
ltoes -0.38839
12
root 6.33589 17.2975 0.70445 44.2987 85.2194 46.308
lowerback 4.04151 2.94678 -5.57957
upperback 1.75498 3.75342 -1.40009
thorax -0.714615 1.88118 1.49754
lowerneck -16.6674 1.76766 1.39173
upperneck 38.3913 5.21103 -2.94316
head 16.8426 2.47779 -0.40827
rclavicle -1.86858e-014 -3.18055e-015
rhumerus -34.94 -0.0226859 -89.7406
rradius 29.4836
rwrist 5.31841
rhand -12.8228 -29.529
rfingers 7.12502
rthumb 13.264 -59.0869
lclavicle -1.86858e-014 -3.18055e-015
lhumerus -30.0561 -15.9643 92.3075
lradius 23.6313
lwrist -13.5325
lhand -15.8956 -25.0183
lfingers 7.12502
lthumb 10.3008 4.70948
rfemur 9.31203 -6.14527 1.27926
rtibia 1.14959
rfoot -8.43184 -2.93101
rtoes -1.87946
lfemur 16.1569 -3.32594 -14.1368
ltibia -5.8308
lfoot -12.026 16.7973
ltoes -1.06114
13
root 6.3361 17.2973 0.704182 44.9269 85.1776 46.9546
lowerback 4.0571 2.95035 -5.64499
upperback 1.76483 3.75563 -1.4165
thorax -0.716145 1.88229 1.51619
lowerneck -16.663 1.76019 1.35956
upperneck 38.3846 5.19901 -2.91685
head 16.8352 2.47183 -0.393295
rclavicle -1.98288e-014 -1.27222e-014
rhumerus -34.9664 -0.0604659 -89.7344
rradius 29.5222
rwrist 5.30004
rhand -12.7863 -29.6571
rfingers 7.12502
rthumb 13.2992 -59.2128
lclavicle -1.98288e-014 -1.27222e-014
lhumerus -30.0874 -15.9383 92.2985
lradius 23.6865
lwrist -13.5857
lhand -15.8089 -24.9177
lfingers 7.12502
lthumb 10.3845 4.80588
rfemur 9.36335 -6.23391 1.15719
rtibia 1.12346
rfoot -8.35257 -2.76806
rtoes -1.78987
lfemur 16.1648 -3.33081 -14.2255
ltibia -5.81566
lfoot -11.9424 16.8124
ltoes -1.61113
14
root 6.33736 17.2956 0.703743 44.9981 85.1553 47.0342
lowerback 4.05189 2.96553 -5.64583
upperback 1.75258 3.77576 -1.44749
thorax -0.725201 1.89297 1.48362
lowerneck -16.6398 1.74652 1.38692
upperneck 38.4429 5.17168 -2.89508
head 16.8595 2.46997 -0.393318
rclavicle -5.7896e-015 -1.86858e-014
rhumerus -35.0378 -0.179359 -89.7415
rradius 29.5311
rwrist 5.39206
rhand -12.8859 -29.5666
rfingers 7.12502
rthumb 13.2032 -59.1285
lclavicle -5.7896e-015 -1.86858e-014
lhumerus -30.171 -16.0681 92.2961
lradius 23.7795
lwrist -13.5034
lhand -15.7155 -24.7525
lfingers 7.12502
lthumb 10.4746 4.96649
rfemur 9.37495 -6.31408 1.09813
rtibia 1.14786
rfoot -8.32982 -2.75747
rtoes -2.19752
lfemur 16.1551 -3.22435 -14.2183
ltibia -5.75396
lfoot -11.9234 16.7044
ltoes -1.83476
